<svg width="114" height="59" viewBox="0 0 114 59" fill="none" xmlns="http://www.w3.org/2000/svg">
<g clip-path="url(#clip0_105_38)">
<path d="M-0.736 41.016V40.376C0.117333 40.2907 0.842667 40.0347 1.44 39.608C2.03733 39.2027 2.496 38.4987 2.816 37.496C3.136 36.4933 3.296 35.0853 3.296 33.272V15.736C3.296 14.9467 3.232 14.3707 3.104 14.008C2.99733 13.624 2.77333 13.368 2.432 13.24C2.09067 13.0907 1.57867 13.0053 0.896 12.984V12.344C1.42933 12.3653 2.12267 12.3867 2.976 12.408C3.85067 12.4293 4.768 12.44 5.728 12.44C6.688 12.44 7.616 12.4293 8.512 12.408C9.42933 12.3867 10.1867 12.3653 10.784 12.344V12.984C10.1227 13.0053 9.61067 13.0907 9.248 13.24C8.90667 13.368 8.672 13.624 8.544 14.008C8.43733 14.3707 8.384 14.9467 8.384 15.736V27.448C8.384 28.3227 8.384 29.272 8.384 30.296C8.384 31.2987 8.34133 32.28 8.256 33.24C8.192 34.2 8.05333 35.0533 7.84 35.8C7.41333 37.272 6.48533 38.5093 5.056 39.512C3.648 40.5147 1.71733 41.016 -0.736 41.016ZM16.184 35.224C15.224 35.224 14.424 35.0427 13.784 34.68C13.144 34.3173 12.6747 33.8373 12.376 33.24C12.0773 32.6213 11.928 31.9493 11.928 31.224C11.928 30.3067 12.1307 29.56 12.536 28.984C12.9627 28.408 13.5067 27.9387 14.168 27.576C14.8293 27.2133 15.5227 26.9147 16.248 26.68C16.9947 26.4453 17.6987 26.2213 18.36 26.008C19.0427 25.7733 19.5867 25.5067 19.992 25.208C20.4187 24.888 20.632 24.4827 20.632 23.992V21.496C20.632 20.9413 20.536 20.4507 20.344 20.024C20.1733 19.576 19.896 19.2347 19.512 19C19.1493 18.7653 18.6693 18.648 18.072 18.648C17.6453 18.648 17.2187 18.712 16.792 18.84C16.3653 18.9467 16.0133 19.1387 15.736 19.416C16.3333 19.6293 16.792 19.96 17.112 20.408C17.4533 20.8347 17.624 21.3253 17.624 21.88C17.624 22.6053 17.368 23.1813 16.856 23.608C16.3653 24.0347 15.7787 24.248 15.096 24.248C14.328 24.248 13.7413 24.0133 13.336 23.544C12.952 23.0533 12.76 22.4667 12.76 21.784C12.76 21.1653 12.9093 20.6533 13.208 20.248C13.528 19.8427 13.9653 19.4587 14.52 19.096C15.1173 18.7547 15.832 18.488 16.664 18.296C17.5173 18.104 18.4347 18.008 19.416 18.008C20.3973 18.008 21.2827 18.1147 22.072 18.328C22.8613 18.52 23.5227 18.8827 24.056 19.416C24.5467 19.9067 24.8667 20.5147 25.016 21.24C25.1653 21.944 25.24 22.84 25.24 23.928V32.632C25.24 33.1653 25.2933 33.5387 25.4 33.752C25.5067 33.944 25.688 34.04 25.944 34.04C26.136 34.04 26.3173 33.9867 26.488 33.88C26.68 33.7733 26.8827 33.6453 27.096 33.496L27.416 34.04C26.968 34.424 26.4453 34.7227 25.848 34.936C25.272 35.128 24.6213 35.224 23.896 35.224C23.1067 35.224 22.4773 35.1173 22.008 34.904C21.5387 34.6693 21.1973 34.36 20.984 33.976C20.792 33.592 20.696 33.144 20.696 32.632C20.184 33.4427 19.5653 34.0827 18.84 34.552C18.1147 35 17.2293 35.224 16.184 35.224ZM18.456 33.176C18.8827 33.176 19.2667 33.08 19.608 32.888C19.9707 32.6747 20.312 32.3333 20.632 31.864V25.304C20.44 25.624 20.1733 25.912 19.832 26.168C19.4907 26.424 19.128 26.6907 18.744 26.968C18.36 27.224 17.9867 27.512 17.624 27.832C17.2827 28.152 17.0053 28.5467 16.792 29.016C16.5787 29.4853 16.472 30.0507 16.472 30.712C16.472 31.544 16.6533 32.1627 17.016 32.568C17.3787 32.9733 17.8587 33.176 18.456 33.176ZM40.2345 18.008C41.1305 18.008 41.8558 18.1253 42.4105 18.36C42.9865 18.5733 43.4345 18.872 43.7545 19.256C44.0958 19.6613 44.3412 20.184 44.4905 20.824C44.6612 21.464 44.7465 22.328 44.7465 23.416V32.024C44.7465 32.92 44.8958 33.528 45.1945 33.848C45.5145 34.168 46.0478 34.328 46.7945 34.328V35C46.3892 34.9787 45.7812 34.9573 44.9705 34.936C44.1598 34.8933 43.3598 34.872 42.5705 34.872C41.7598 34.872 40.9598 34.8933 40.1705 34.936C39.4025 34.9573 38.8158 34.9787 38.4105 35V34.328C39.0505 34.328 39.4985 34.168 39.7545 33.848C40.0105 33.528 40.1385 32.92 40.1385 32.024V22.072C40.1385 21.5387 40.0852 21.08 39.9785 20.696C39.8718 20.2907 39.6798 19.9813 39.4025 19.768C39.1252 19.5333 38.7092 19.416 38.1545 19.416C37.5785 19.416 37.0452 19.576 36.5545 19.896C36.0852 20.216 35.7012 20.664 35.4025 21.24C35.1252 21.7947 34.9865 22.424 34.9865 23.128V32.024C34.9865 32.92 35.1145 33.528 35.3705 33.848C35.6478 34.168 36.0958 34.328 36.7145 34.328V35C36.3305 34.9787 35.7652 34.9573 35.0185 34.936C34.2932 34.8933 33.5358 34.872 32.7465 34.872C31.9358 34.872 31.1038 34.8933 30.2505 34.936C29.3972 34.9573 28.7572 34.9787 28.3305 35V34.328C29.0772 34.328 29.5998 34.168 29.8985 33.848C30.2185 33.528 30.3785 32.92 30.3785 32.024V21.944C30.3785 20.984 30.2292 20.28 29.9305 19.832C29.6532 19.3627 29.1198 19.128 28.3305 19.128V18.456C29.0132 18.52 29.6745 18.552 30.3145 18.552C31.2105 18.552 32.0425 18.52 32.8105 18.456C33.5998 18.3707 34.3252 18.2533 34.9865 18.104V20.984C35.5198 19.896 36.2452 19.128 37.1625 18.68C38.0798 18.232 39.1038 18.008 40.2345 18.008ZM54.5148 9.944V32.024C54.5148 32.92 54.6641 33.528 54.9628 33.848C55.2828 34.168 55.8161 34.328 56.5628 34.328V35C56.1574 34.9787 55.5494 34.9573 54.7388 34.936C53.9281 34.8933 53.1068 34.872 52.2748 34.872C51.4428 34.872 50.6001 34.8933 49.7468 34.936C48.9148 34.9573 48.2854 34.9787 47.8588 35V34.328C48.6054 34.328 49.1281 34.168 49.4268 33.848C49.7468 33.528 49.9068 32.92 49.9068 32.024V13.784C49.9068 12.824 49.7574 12.12 49.4588 11.672C49.1814 11.2027 48.6481 10.968 47.8588 10.968V10.296C48.5414 10.36 49.2028 10.392 49.8428 10.392C50.7174 10.392 51.5494 10.36 52.3388 10.296C53.1281 10.2107 53.8534 10.0933 54.5148 9.944ZM64.6398 9.944V32.024C64.6398 32.92 64.7891 33.528 65.0878 33.848C65.4078 34.168 65.9411 34.328 66.6878 34.328V35C66.2824 34.9787 65.6744 34.9573 64.8638 34.936C64.0531 34.8933 63.2318 34.872 62.3998 34.872C61.5678 34.872 60.7251 34.8933 59.8718 34.936C59.0398 34.9573 58.4104 34.9787 57.9838 35V34.328C58.7304 34.328 59.2531 34.168 59.5518 33.848C59.8718 33.528 60.0318 32.92 60.0318 32.024V13.784C60.0318 12.824 59.8824 12.12 59.5838 11.672C59.3064 11.2027 58.7731 10.968 57.9838 10.968V10.296C58.6664 10.36 59.3278 10.392 59.9678 10.392C60.8424 10.392 61.6744 10.36 62.4638 10.296C63.2531 10.2107 63.9784 10.0933 64.6398 9.944ZM83.6973 18.456V19.096C83.2919 19.2027 82.9079 19.4587 82.5453 19.864C82.1826 20.248 81.8306 20.9093 81.4893 21.848L76.9773 34.52L75.7933 36.76L68.8173 20.92C68.4546 20.088 68.0919 19.5867 67.7293 19.416C67.3879 19.224 67.0892 19.128 66.8332 19.128V18.456C67.5373 18.52 68.2626 18.5733 69.0093 18.616C69.7773 18.6373 70.5133 18.648 71.2173 18.648C72.0919 18.648 72.8919 18.6267 73.6173 18.584C74.3426 18.5413 75.0253 18.4987 75.6653 18.456V19.128C75.2386 19.128 74.8333 19.16 74.4493 19.224C74.0866 19.2667 73.8306 19.416 73.6813 19.672C73.5533 19.9067 73.6173 20.3227 73.8733 20.92L77.9053 30.648L77.6173 30.84L79.9853 24.216C80.3906 23.064 80.5613 22.1253 80.4973 21.4C80.4333 20.6533 80.1986 20.0987 79.7933 19.736C79.3879 19.352 78.8333 19.1387 78.1293 19.096V18.456C78.4706 18.4773 78.8226 18.4987 79.1853 18.52C79.5479 18.52 79.9106 18.5307 80.2733 18.552C80.6359 18.552 80.9559 18.552 81.2333 18.552C81.6599 18.552 82.1079 18.5413 82.5773 18.52C83.0466 18.4987 83.4199 18.4773 83.6973 18.456ZM76.9773 34.52L75.7613 37.944C75.5479 38.4773 75.3239 38.9253 75.0893 39.288C74.8759 39.672 74.6306 39.9813 74.3533 40.216C74.0546 40.472 73.6706 40.664 73.2013 40.792C72.7319 40.9413 72.1879 41.016 71.5693 41.016C71.0573 41.016 70.5239 40.9307 69.9693 40.76C69.4359 40.5893 68.9879 40.312 68.6253 39.928C68.2626 39.544 68.0813 39.0533 68.0813 38.456C68.0813 37.7947 68.3159 37.2613 68.7853 36.856C69.2546 36.472 69.8733 36.28 70.6413 36.28C71.3453 36.28 71.9213 36.4507 72.3693 36.792C72.8173 37.1333 73.0413 37.6347 73.0413 38.296C73.0413 38.7227 72.9026 39.128 72.6253 39.512C72.3693 39.896 71.9746 40.184 71.4413 40.376C71.5479 40.3973 71.6759 40.408 71.8253 40.408C71.9746 40.408 72.0919 40.408 72.1773 40.408C72.8173 40.408 73.3826 40.2053 73.8733 39.8C74.3639 39.3947 74.7693 38.7547 75.0893 37.88L76.2093 34.584L76.9773 34.52Z" fill="black"/>
<path d="M5.43 50.07C5.43 50.65 5.23 51.1333 4.83 51.52C4.43667 51.9 3.83333 52.09 3.02 52.09H1.68V55H0.77V48.03H3.02C3.80667 48.03 4.40333 48.22 4.81 48.6C5.22333 48.98 5.43 49.47 5.43 50.07ZM3.02 51.34C3.52667 51.34 3.9 51.23 4.14 51.01C4.38 50.79 4.5 50.4767 4.5 50.07C4.5 49.21 4.00667 48.78 3.02 48.78H1.68V51.34H3.02ZM7.47102 50.41C7.63102 50.0967 7.85768 49.8533 8.15102 49.68C8.45102 49.5067 8.81435 49.42 9.24102 49.42V50.36H9.00102C7.98102 50.36 7.47102 50.9133 7.47102 52.02V55H6.56102V49.52H7.47102V50.41ZM15.2915 52.05C15.2915 52.2233 15.2815 52.4067 15.2615 52.6H10.8815C10.9148 53.14 11.0982 53.5633 11.4315 53.87C11.7715 54.17 12.1815 54.32 12.6615 54.32C13.0548 54.32 13.3815 54.23 13.6415 54.05C13.9082 53.8633 14.0948 53.6167 14.2015 53.31H15.1815C15.0348 53.8367 14.7415 54.2667 14.3015 54.6C13.8615 54.9267 13.3148 55.09 12.6615 55.09C12.1415 55.09 11.6748 54.9733 11.2615 54.74C10.8548 54.5067 10.5348 54.1767 10.3015 53.75C10.0682 53.3167 9.95148 52.8167 9.95148 52.25C9.95148 51.6833 10.0648 51.1867 10.2915 50.76C10.5182 50.3333 10.8348 50.0067 11.2415 49.78C11.6548 49.5467 12.1282 49.43 12.6615 49.43C13.1815 49.43 13.6415 49.5433 14.0415 49.77C14.4415 49.9967 14.7482 50.31 14.9615 50.71C15.1815 51.1033 15.2915 51.55 15.2915 52.05ZM14.3515 51.86C14.3515 51.5133 14.2748 51.2167 14.1215 50.97C13.9682 50.7167 13.7582 50.5267 13.4915 50.4C13.2315 50.2667 12.9415 50.2 12.6215 50.2C12.1615 50.2 11.7682 50.3467 11.4415 50.64C11.1215 50.9333 10.9382 51.34 10.8915 51.86H14.3515ZM23.0827 49.42C23.5093 49.42 23.8893 49.51 24.2227 49.69C24.556 49.8633 24.8193 50.1267 25.0127 50.48C25.206 50.8333 25.3027 51.2633 25.3027 51.77V55H24.4027V51.9C24.4027 51.3533 24.266 50.9367 23.9927 50.65C23.726 50.3567 23.3627 50.21 22.9027 50.21C22.4293 50.21 22.0527 50.3633 21.7727 50.67C21.4927 50.97 21.3527 51.4067 21.3527 51.98V55H20.4527V51.9C20.4527 51.3533 20.316 50.9367 20.0427 50.65C19.776 50.3567 19.4127 50.21 18.9527 50.21C18.4793 50.21 18.1027 50.3633 17.8227 50.67C17.5427 50.97 17.4027 51.4067 17.4027 51.98V55H16.4927V49.52H17.4027V50.31C17.5827 50.0233 17.8227 49.8033 18.1227 49.65C18.4293 49.4967 18.766 49.42 19.1327 49.42C19.5927 49.42 19.9993 49.5233 20.3527 49.73C20.706 49.9367 20.9693 50.24 21.1427 50.64C21.296 50.2533 21.5493 49.9533 21.9027 49.74C22.256 49.5267 22.6493 49.42 23.0827 49.42ZM27.2654 48.63C27.0921 48.63 26.9454 48.57 26.8254 48.45C26.7054 48.33 26.6454 48.1833 26.6454 48.01C26.6454 47.8367 26.7054 47.69 26.8254 47.57C26.9454 47.45 27.0921 47.39 27.2654 47.39C27.4321 47.39 27.5721 47.45 27.6854 47.57C27.8054 47.69 27.8654 47.8367 27.8654 48.01C27.8654 48.1833 27.8054 48.33 27.6854 48.45C27.5721 48.57 27.4321 48.63 27.2654 48.63ZM27.7054 49.52V55H26.7954V49.52H27.7054ZM34.1163 49.52V55H33.2063V54.19C33.033 54.47 32.7897 54.69 32.4763 54.85C32.1697 55.0033 31.8297 55.08 31.4563 55.08C31.0297 55.08 30.6463 54.9933 30.3063 54.82C29.9663 54.64 29.6963 54.3733 29.4963 54.02C29.303 53.6667 29.2063 53.2367 29.2063 52.73V49.52H30.1063V52.61C30.1063 53.15 30.243 53.5667 30.5163 53.86C30.7897 54.1467 31.163 54.29 31.6363 54.29C32.123 54.29 32.5063 54.14 32.7863 53.84C33.0663 53.54 33.2063 53.1033 33.2063 52.53V49.52H34.1163ZM42.2428 49.42C42.6695 49.42 43.0495 49.51 43.3828 49.69C43.7161 49.8633 43.9795 50.1267 44.1728 50.48C44.3661 50.8333 44.4628 51.2633 44.4628 51.77V55H43.5628V51.9C43.5628 51.3533 43.4261 50.9367 43.1528 50.65C42.8861 50.3567 42.5228 50.21 42.0628 50.21C41.5895 50.21 41.2128 50.3633 40.9328 50.67C40.6528 50.97 40.5128 51.4067 40.5128 51.98V55H39.6128V51.9C39.6128 51.3533 39.4761 50.9367 39.2028 50.65C38.9361 50.3567 38.5728 50.21 38.1128 50.21C37.6395 50.21 37.2628 50.3633 36.9828 50.67C36.7028 50.97 36.5628 51.4067 36.5628 51.98V55H35.6528V49.52H36.5628V50.31C36.7428 50.0233 36.9828 49.8033 37.2828 49.65C37.5895 49.4967 37.9261 49.42 38.2928 49.42C38.7528 49.42 39.1595 49.5233 39.5128 49.73C39.8661 49.9367 40.1295 50.24 40.3028 50.64C40.4561 50.2533 40.7095 49.9533 41.0628 49.74C41.4161 49.5267 41.8095 49.42 42.2428 49.42ZM52.7416 53.45H49.7016L49.1416 55H48.1816L50.7016 48.07H51.7516L54.2616 55H53.3016L52.7416 53.45ZM52.4816 52.71L51.2216 49.19L49.9616 52.71H52.4816ZM56.2698 50.53C56.4498 50.2167 56.7165 49.9567 57.0698 49.75C57.4298 49.5367 57.8465 49.43 58.3198 49.43C58.8065 49.43 59.2465 49.5467 59.6398 49.78C60.0398 50.0133 60.3532 50.3433 60.5798 50.77C60.8065 51.19 60.9198 51.68 60.9198 52.24C60.9198 52.7933 60.8065 53.2867 60.5798 53.72C60.3532 54.1533 60.0398 54.49 59.6398 54.73C59.2465 54.97 58.8065 55.09 58.3198 55.09C57.8532 55.09 57.4398 54.9867 57.0798 54.78C56.7265 54.5667 56.4565 54.3033 56.2698 53.99V57.6H55.3598V49.52H56.2698V50.53ZM59.9898 52.24C59.9898 51.8267 59.9065 51.4667 59.7398 51.16C59.5732 50.8533 59.3465 50.62 59.0598 50.46C58.7798 50.3 58.4698 50.22 58.1298 50.22C57.7965 50.22 57.4865 50.3033 57.1998 50.47C56.9198 50.63 56.6932 50.8667 56.5198 51.18C56.3532 51.4867 56.2698 51.8433 56.2698 52.25C56.2698 52.6633 56.3532 53.0267 56.5198 53.34C56.6932 53.6467 56.9198 53.8833 57.1998 54.05C57.4865 54.21 57.7965 54.29 58.1298 54.29C58.4698 54.29 58.7798 54.21 59.0598 54.05C59.3465 53.8833 59.5732 53.6467 59.7398 53.34C59.9065 53.0267 59.9898 52.66 59.9898 52.24ZM63.0277 50.53C63.2077 50.2167 63.4743 49.9567 63.8277 49.75C64.1877 49.5367 64.6043 49.43 65.0777 49.43C65.5643 49.43 66.0043 49.5467 66.3977 49.78C66.7977 50.0133 67.111 50.3433 67.3377 50.77C67.5643 51.19 67.6777 51.68 67.6777 52.24C67.6777 52.7933 67.5643 53.2867 67.3377 53.72C67.111 54.1533 66.7977 54.49 66.3977 54.73C66.0043 54.97 65.5643 55.09 65.0777 55.09C64.611 55.09 64.1977 54.9867 63.8377 54.78C63.4843 54.5667 63.2143 54.3033 63.0277 53.99V57.6H62.1177V49.52H63.0277V50.53ZM66.7477 52.24C66.7477 51.8267 66.6643 51.4667 66.4977 51.16C66.331 50.8533 66.1043 50.62 65.8177 50.46C65.5377 50.3 65.2277 50.22 64.8877 50.22C64.5543 50.22 64.2443 50.3033 63.9577 50.47C63.6777 50.63 63.451 50.8667 63.2777 51.18C63.111 51.4867 63.0277 51.8433 63.0277 52.25C63.0277 52.6633 63.111 53.0267 63.2777 53.34C63.451 53.6467 63.6777 53.8833 63.9577 54.05C64.2443 54.21 64.5543 54.29 64.8877 54.29C65.2277 54.29 65.5377 54.21 65.8177 54.05C66.1043 53.8833 66.331 53.6467 66.4977 53.34C66.6643 53.0267 66.7477 52.66 66.7477 52.24ZM68.5355 52.24C68.5355 51.68 68.6488 51.19 68.8755 50.77C69.1021 50.3433 69.4121 50.0133 69.8055 49.78C70.2055 49.5467 70.6488 49.43 71.1355 49.43C71.6155 49.43 72.0321 49.5333 72.3855 49.74C72.7388 49.9467 73.0021 50.2067 73.1755 50.52V49.52H74.0955V55H73.1755V53.98C72.9955 54.3 72.7255 54.5667 72.3655 54.78C72.0121 54.9867 71.5988 55.09 71.1255 55.09C70.6388 55.09 70.1988 54.97 69.8055 54.73C69.4121 54.49 69.1021 54.1533 68.8755 53.72C68.6488 53.2867 68.5355 52.7933 68.5355 52.24ZM73.1755 52.25C73.1755 51.8367 73.0921 51.4767 72.9255 51.17C72.7588 50.8633 72.5321 50.63 72.2455 50.47C71.9655 50.3033 71.6555 50.22 71.3155 50.22C70.9755 50.22 70.6655 50.3 70.3855 50.46C70.1055 50.62 69.8821 50.8533 69.7155 51.16C69.5488 51.4667 69.4655 51.8267 69.4655 52.24C69.4655 52.66 69.5488 53.0267 69.7155 53.34C69.8821 53.6467 70.1055 53.8833 70.3855 54.05C70.6655 54.21 70.9755 54.29 71.3155 54.29C71.6555 54.29 71.9655 54.21 72.2455 54.05C72.5321 53.8833 72.7588 53.6467 72.9255 53.34C73.0921 53.0267 73.1755 52.6633 73.1755 52.25ZM76.5433 50.41C76.7033 50.0967 76.9299 49.8533 77.2233 49.68C77.5233 49.5067 77.8866 49.42 78.3133 49.42V50.36H78.0733C77.0533 50.36 76.5433 50.9133 76.5433 52.02V55H75.6333V49.52H76.5433V50.41ZM84.3638 52.05C84.3638 52.2233 84.3538 52.4067 84.3338 52.6H79.9538C79.9871 53.14 80.1704 53.5633 80.5038 53.87C80.8438 54.17 81.2538 54.32 81.7338 54.32C82.1271 54.32 82.4538 54.23 82.7138 54.05C82.9804 53.8633 83.1671 53.6167 83.2738 53.31H84.2538C84.1071 53.8367 83.8138 54.2667 83.3738 54.6C82.9338 54.9267 82.3871 55.09 81.7338 55.09C81.2138 55.09 80.7471 54.9733 80.3338 54.74C79.9271 54.5067 79.6071 54.1767 79.3738 53.75C79.1404 53.3167 79.0238 52.8167 79.0238 52.25C79.0238 51.6833 79.1371 51.1867 79.3638 50.76C79.5904 50.3333 79.9071 50.0067 80.3138 49.78C80.7271 49.5467 81.2004 49.43 81.7338 49.43C82.2538 49.43 82.7138 49.5433 83.1138 49.77C83.5138 49.9967 83.8204 50.31 84.0338 50.71C84.2538 51.1033 84.3638 51.55 84.3638 52.05ZM83.4238 51.86C83.4238 51.5133 83.3471 51.2167 83.1938 50.97C83.0404 50.7167 82.8304 50.5267 82.5638 50.4C82.3038 50.2667 82.0138 50.2 81.6938 50.2C81.2338 50.2 80.8404 50.3467 80.5138 50.64C80.1938 50.9333 80.0104 51.34 79.9638 51.86H83.4238ZM85.2249 52.24C85.2249 51.68 85.3383 51.19 85.5649 50.77C85.7916 50.3433 86.1016 50.0133 86.4949 49.78C86.8949 49.5467 87.3383 49.43 87.8249 49.43C88.3049 49.43 88.7216 49.5333 89.0749 49.74C89.4283 49.9467 89.6916 50.2067 89.8649 50.52V49.52H90.7849V55H89.8649V53.98C89.6849 54.3 89.4149 54.5667 89.0549 54.78C88.7016 54.9867 88.2883 55.09 87.8149 55.09C87.3283 55.09 86.8883 54.97 86.4949 54.73C86.1016 54.49 85.7916 54.1533 85.5649 53.72C85.3383 53.2867 85.2249 52.7933 85.2249 52.24ZM89.8649 52.25C89.8649 51.8367 89.7816 51.4767 89.6149 51.17C89.4483 50.8633 89.2216 50.63 88.9349 50.47C88.6549 50.3033 88.3449 50.22 88.0049 50.22C87.6649 50.22 87.3549 50.3 87.0749 50.46C86.7949 50.62 86.5716 50.8533 86.4049 51.16C86.2383 51.4667 86.1549 51.8267 86.1549 52.24C86.1549 52.66 86.2383 53.0267 86.4049 53.34C86.5716 53.6467 86.7949 53.8833 87.0749 54.05C87.3549 54.21 87.6649 54.29 88.0049 54.29C88.3449 54.29 88.6549 54.21 88.9349 54.05C89.2216 53.8833 89.4483 53.6467 89.6149 53.34C89.7816 53.0267 89.8649 52.6633 89.8649 52.25ZM93.2327 47.6V55H92.3227V47.6H93.2327Z" fill="black"/>
</g>
<defs>
<clipPath id="clip0_105_38">
<rect width="114" height="59" fill="white"/>
</clipPath>
</defs>
</svg>
